<mxfile host="app.diagrams.net" agent="Mozilla/5.0 (Windows NT 10.0; Win64; x64; rv:131.0) Gecko/20100101 Firefox/131.0" version="24.8.3">
  <diagram name="Seite-1" id="zAzjbxygs4-kPelFN3mp">
    <mxGraphModel grid="1" page="1" gridSize="10" guides="1" tooltips="1" connect="1" arrows="1" fold="1" pageScale="1" pageWidth="827" pageHeight="1169" math="0" shadow="0">
      <root>
        <mxCell id="0" />
        <mxCell id="1" parent="0" />
        <mxCell id="7P69qqmj-2dz770Gpz7b-1" value="Benutzer" style="rounded=0;whiteSpace=wrap;html=1;" vertex="1" parent="1">
          <mxGeometry x="80" y="180" width="120" height="60" as="geometry" />
        </mxCell>
        <mxCell id="7P69qqmj-2dz770Gpz7b-2" value="UI" style="rounded=0;whiteSpace=wrap;html=1;" vertex="1" parent="1">
          <mxGeometry x="240" y="180" width="120" height="60" as="geometry" />
        </mxCell>
        <mxCell id="iH0Yo2gnbCKK6kwk9RAm-1" value="&lt;div&gt;Nährwert-Analyse&lt;/div&gt;&lt;div&gt;Modul&lt;br&gt;&lt;/div&gt;" style="rounded=0;whiteSpace=wrap;html=1;" vertex="1" parent="1">
          <mxGeometry x="400" y="180" width="120" height="60" as="geometry" />
        </mxCell>
        <mxCell id="iH0Yo2gnbCKK6kwk9RAm-2" value="Lokale Datenbank" style="rounded=0;whiteSpace=wrap;html=1;" vertex="1" parent="1">
          <mxGeometry x="560" y="180" width="120" height="60" as="geometry" />
        </mxCell>
        <mxCell id="iH0Yo2gnbCKK6kwk9RAm-3" value="" style="endArrow=none;dashed=1;html=1;rounded=0;" edge="1" parent="1" source="7P69qqmj-2dz770Gpz7b-1">
          <mxGeometry width="50" height="50" relative="1" as="geometry">
            <mxPoint x="140" y="290" as="sourcePoint" />
            <mxPoint x="140" y="600" as="targetPoint" />
          </mxGeometry>
        </mxCell>
        <mxCell id="iH0Yo2gnbCKK6kwk9RAm-4" value="" style="endArrow=none;dashed=1;html=1;rounded=0;" edge="1" parent="1" source="iH0Yo2gnbCKK6kwk9RAm-27">
          <mxGeometry width="50" height="50" relative="1" as="geometry">
            <mxPoint x="300" y="290" as="sourcePoint" />
            <mxPoint x="300" y="600" as="targetPoint" />
          </mxGeometry>
        </mxCell>
        <mxCell id="iH0Yo2gnbCKK6kwk9RAm-5" value="" style="endArrow=classic;html=1;rounded=0;" edge="1" parent="1">
          <mxGeometry relative="1" as="geometry">
            <mxPoint x="140" y="290" as="sourcePoint" />
            <mxPoint x="300" y="290" as="targetPoint" />
          </mxGeometry>
        </mxCell>
        <mxCell id="iH0Yo2gnbCKK6kwk9RAm-6" value="&lt;div&gt;Gibt Lebens-&lt;/div&gt;&lt;div&gt;mittelinformation&lt;/div&gt;&lt;div&gt;ein&lt;br&gt;&lt;/div&gt;" style="edgeLabel;resizable=0;html=1;;align=center;verticalAlign=middle;" connectable="0" vertex="1" parent="iH0Yo2gnbCKK6kwk9RAm-5">
          <mxGeometry relative="1" as="geometry" />
        </mxCell>
        <mxCell id="iH0Yo2gnbCKK6kwk9RAm-8" value="" style="endArrow=none;dashed=1;html=1;rounded=0;" edge="1" parent="1" source="7P69qqmj-2dz770Gpz7b-2" target="iH0Yo2gnbCKK6kwk9RAm-7">
          <mxGeometry width="50" height="50" relative="1" as="geometry">
            <mxPoint x="300" y="240" as="sourcePoint" />
            <mxPoint x="300" y="640" as="targetPoint" />
          </mxGeometry>
        </mxCell>
        <mxCell id="iH0Yo2gnbCKK6kwk9RAm-7" value="" style="rounded=1;whiteSpace=wrap;html=1;" vertex="1" parent="1">
          <mxGeometry x="295" y="290" width="10" height="50" as="geometry" />
        </mxCell>
        <mxCell id="iH0Yo2gnbCKK6kwk9RAm-9" value="" style="endArrow=none;dashed=1;html=1;rounded=0;" edge="1" parent="1" source="iH0Yo2gnbCKK6kwk9RAm-22">
          <mxGeometry width="50" height="50" relative="1" as="geometry">
            <mxPoint x="459.5" y="240" as="sourcePoint" />
            <mxPoint x="460" y="600" as="targetPoint" />
          </mxGeometry>
        </mxCell>
        <mxCell id="iH0Yo2gnbCKK6kwk9RAm-10" value="" style="endArrow=none;dashed=1;html=1;rounded=0;" edge="1" parent="1" source="iH0Yo2gnbCKK6kwk9RAm-18">
          <mxGeometry width="50" height="50" relative="1" as="geometry">
            <mxPoint x="619.5" y="240" as="sourcePoint" />
            <mxPoint x="620" y="600" as="targetPoint" />
          </mxGeometry>
        </mxCell>
        <mxCell id="iH0Yo2gnbCKK6kwk9RAm-12" value="" style="endArrow=classic;html=1;rounded=0;" edge="1" parent="1">
          <mxGeometry relative="1" as="geometry">
            <mxPoint x="305" y="339" as="sourcePoint" />
            <mxPoint x="460" y="340" as="targetPoint" />
          </mxGeometry>
        </mxCell>
        <mxCell id="iH0Yo2gnbCKK6kwk9RAm-13" value="&lt;div&gt;Übermittelt &lt;br&gt;&lt;/div&gt;&lt;div&gt;Eingaben&lt;br&gt;&lt;/div&gt;" style="edgeLabel;resizable=0;html=1;;align=center;verticalAlign=middle;" connectable="0" vertex="1" parent="iH0Yo2gnbCKK6kwk9RAm-12">
          <mxGeometry relative="1" as="geometry" />
        </mxCell>
        <mxCell id="iH0Yo2gnbCKK6kwk9RAm-15" value="" style="endArrow=none;dashed=1;html=1;rounded=0;" edge="1" parent="1" target="iH0Yo2gnbCKK6kwk9RAm-14">
          <mxGeometry width="50" height="50" relative="1" as="geometry">
            <mxPoint x="459.5" y="240" as="sourcePoint" />
            <mxPoint x="459.5" y="650" as="targetPoint" />
          </mxGeometry>
        </mxCell>
        <mxCell id="iH0Yo2gnbCKK6kwk9RAm-14" value="" style="rounded=1;whiteSpace=wrap;html=1;" vertex="1" parent="1">
          <mxGeometry x="455" y="340" width="10" height="50" as="geometry" />
        </mxCell>
        <mxCell id="iH0Yo2gnbCKK6kwk9RAm-16" value="" style="endArrow=classic;html=1;rounded=0;" edge="1" parent="1">
          <mxGeometry relative="1" as="geometry">
            <mxPoint x="465" y="390" as="sourcePoint" />
            <mxPoint x="620" y="391" as="targetPoint" />
          </mxGeometry>
        </mxCell>
        <mxCell id="iH0Yo2gnbCKK6kwk9RAm-17" value="&lt;div&gt;Speichert die&lt;/div&gt;&lt;div&gt;eingegebene&lt;/div&gt;&lt;div&gt;Mahlzeit&lt;br&gt;&lt;/div&gt;" style="edgeLabel;resizable=0;html=1;;align=center;verticalAlign=middle;" connectable="0" vertex="1" parent="iH0Yo2gnbCKK6kwk9RAm-16">
          <mxGeometry relative="1" as="geometry" />
        </mxCell>
        <mxCell id="iH0Yo2gnbCKK6kwk9RAm-19" value="" style="endArrow=none;dashed=1;html=1;rounded=0;" edge="1" parent="1" target="iH0Yo2gnbCKK6kwk9RAm-18">
          <mxGeometry width="50" height="50" relative="1" as="geometry">
            <mxPoint x="619.5" y="240" as="sourcePoint" />
            <mxPoint x="619.5" y="650" as="targetPoint" />
          </mxGeometry>
        </mxCell>
        <mxCell id="iH0Yo2gnbCKK6kwk9RAm-18" value="" style="rounded=1;whiteSpace=wrap;html=1;" vertex="1" parent="1">
          <mxGeometry x="615" y="390" width="10" height="50" as="geometry" />
        </mxCell>
        <mxCell id="iH0Yo2gnbCKK6kwk9RAm-20" value="" style="endArrow=classic;html=1;rounded=0;" edge="1" parent="1">
          <mxGeometry relative="1" as="geometry">
            <mxPoint x="615" y="440" as="sourcePoint" />
            <mxPoint x="460" y="440" as="targetPoint" />
          </mxGeometry>
        </mxCell>
        <mxCell id="iH0Yo2gnbCKK6kwk9RAm-21" value="&lt;div&gt;Bestätigt&lt;/div&gt;&lt;div&gt;Speicherung&lt;br&gt;&lt;/div&gt;" style="edgeLabel;resizable=0;html=1;;align=center;verticalAlign=middle;" connectable="0" vertex="1" parent="iH0Yo2gnbCKK6kwk9RAm-20">
          <mxGeometry relative="1" as="geometry" />
        </mxCell>
        <mxCell id="iH0Yo2gnbCKK6kwk9RAm-23" value="" style="endArrow=none;dashed=1;html=1;rounded=0;" edge="1" parent="1" source="iH0Yo2gnbCKK6kwk9RAm-14" target="iH0Yo2gnbCKK6kwk9RAm-22">
          <mxGeometry width="50" height="50" relative="1" as="geometry">
            <mxPoint x="460" y="390" as="sourcePoint" />
            <mxPoint x="459.5" y="650" as="targetPoint" />
          </mxGeometry>
        </mxCell>
        <mxCell id="iH0Yo2gnbCKK6kwk9RAm-22" value="" style="rounded=1;whiteSpace=wrap;html=1;" vertex="1" parent="1">
          <mxGeometry x="455" y="440" width="10" height="50" as="geometry" />
        </mxCell>
        <mxCell id="iH0Yo2gnbCKK6kwk9RAm-24" value="" style="endArrow=classic;html=1;rounded=0;" edge="1" parent="1">
          <mxGeometry relative="1" as="geometry">
            <mxPoint x="455" y="490" as="sourcePoint" />
            <mxPoint x="300" y="490" as="targetPoint" />
          </mxGeometry>
        </mxCell>
        <mxCell id="iH0Yo2gnbCKK6kwk9RAm-25" value="&lt;div&gt;Benachrichtigt UI über&lt;/div&gt;&lt;div&gt;Speicherung &amp;amp; die verblei-&lt;/div&gt;&lt;div&gt;benden Nährstoffe&lt;br&gt;&lt;/div&gt;" style="edgeLabel;resizable=0;html=1;;align=center;verticalAlign=middle;" connectable="0" vertex="1" parent="iH0Yo2gnbCKK6kwk9RAm-24">
          <mxGeometry relative="1" as="geometry" />
        </mxCell>
        <mxCell id="iH0Yo2gnbCKK6kwk9RAm-28" value="" style="endArrow=none;dashed=1;html=1;rounded=0;" edge="1" parent="1" source="iH0Yo2gnbCKK6kwk9RAm-7" target="iH0Yo2gnbCKK6kwk9RAm-27">
          <mxGeometry width="50" height="50" relative="1" as="geometry">
            <mxPoint x="300" y="340" as="sourcePoint" />
            <mxPoint x="300" y="640" as="targetPoint" />
          </mxGeometry>
        </mxCell>
        <mxCell id="iH0Yo2gnbCKK6kwk9RAm-27" value="" style="rounded=1;whiteSpace=wrap;html=1;" vertex="1" parent="1">
          <mxGeometry x="295" y="490" width="10" height="50" as="geometry" />
        </mxCell>
        <mxCell id="iH0Yo2gnbCKK6kwk9RAm-29" value="" style="endArrow=classic;html=1;rounded=0;" edge="1" parent="1">
          <mxGeometry relative="1" as="geometry">
            <mxPoint x="295" y="540" as="sourcePoint" />
            <mxPoint x="140" y="540" as="targetPoint" />
          </mxGeometry>
        </mxCell>
        <mxCell id="iH0Yo2gnbCKK6kwk9RAm-30" value="&lt;div&gt;Zeigt Benutzer die&lt;/div&gt;&lt;div&gt;Informationen an&lt;br&gt;&lt;/div&gt;" style="edgeLabel;resizable=0;html=1;;align=center;verticalAlign=middle;" connectable="0" vertex="1" parent="iH0Yo2gnbCKK6kwk9RAm-29">
          <mxGeometry relative="1" as="geometry" />
        </mxCell>
      </root>
    </mxGraphModel>
  </diagram>
</mxfile>
